  0
SECTION
  2
BLOCKS
  0
ENDSEC
  0
SECTION
  2
ENTITIES
  0
LINE
  8
0
 10
2
 20
0
 11
1
 21
1.73204
  0
LINE
  8
0
 10
1
 20
1.73204
 11
-0.999985
 21
1.73204
  0
LINE
  8
0
 10
-0.999985
 20
1.73204
 11
-2
 21
0
  0
LINE
  8
0
 10
-2
 20
0
 11
-1
 21
-1.73204
  0
LINE
  8
0
 10
-1
 20
-1.73204
 11
1
 21
-1.73204
  0
LINE
  8
0
 10
1
 20
-1.73204
 11
2
 21
0
  0
LINE
  8
0
 10
0.549988
 20
0.952621
 11
0.399994
 21
1.21243
  0
LINE
  8
0
 10
0.399994
 20
1.21243
 11
0.549988
 21
1.47223
  0
LINE
  8
0
 10
0.549988
 20
1.47223
 11
0.849991
 21
1.47223
  0
LINE
  8
0
 10
0.849991
 20
1.47223
 11
1
 21
1.21243
  0
LINE
  8
0
 10
1
 20
1.21243
 11
0.849991
 21
0.952621
  0
LINE
  8
0
 10
0.849991
 20
0.952621
 11
0.549988
 21
0.952621
  0
LINE
  8
0
 10
-0.849991
 20
0.952621
 11
-0.999985
 21
1.21243
  0
LINE
  8
0
 10
-0.999985
 20
1.21243
 11
-0.849991
 21
1.47223
  0
LINE
  8
0
 10
-0.849991
 20
1.47223
 11
-0.549988
 21
1.47223
  0
LINE
  8
0
 10
-0.549988
 20
1.47223
 11
-0.399994
 21
1.21243
  0
LINE
  8
0
 10
-0.399994
 20
1.21243
 11
-0.549988
 21
0.952621
  0
LINE
  8
0
 10
-0.549988
 20
0.952621
 11
-0.849991
 21
0.952621
  0
LINE
  8
0
 10
-0.866013
 20
-0.499985
 11
-0.866013
 21
0.5
  0
LINE
  8
0
 10
-0.866013
 20
0.5
 11
0
 21
1
  0
LINE
  8
0
 10
0
 20
1
 11
0.866013
 21
0.499985
  0
LINE
  8
0
 10
0.866013
 20
0.499985
 11
0.866013
 21
-0.5
  0
LINE
  8
0
 10
0.866013
 20
-0.5
 11
0
 21
-1
  0
LINE
  8
0
 10
0
 20
-1
 11
-0.866013
 21
-0.499985
  0
LINE
  8
0
 10
1.24998
 20
-0.259796
 11
1.09999
 21
0
  0
LINE
  8
0
 10
1.09999
 20
0
 11
1.25
 21
0.259796
  0
LINE
  8
0
 10
1.25
 20
0.259796
 11
1.54999
 21
0.259796
  0
LINE
  8
0
 10
1.54999
 20
0.259796
 11
1.7
 21
0
  0
LINE
  8
0
 10
1.7
 20
0
 11
1.54999
 21
-0.259796
  0
LINE
  8
0
 10
1.54999
 20
-0.259796
 11
1.24998
 21
-0.259796
  0
LINE
  8
0
 10
-1.54999
 20
-0.259796
 11
-1.7
 21
0
  0
LINE
  8
0
 10
-1.7
 20
0
 11
-1.54999
 21
0.259796
  0
LINE
  8
0
 10
-1.54999
 20
0.259796
 11
-1.24998
 21
0.259796
  0
LINE
  8
0
 10
-1.24998
 20
0.259796
 11
-1.09999
 21
0
  0
LINE
  8
0
 10
-1.09999
 20
0
 11
-1.25
 21
-0.259796
  0
LINE
  8
0
 10
-1.25
 20
-0.259796
 11
-1.54999
 21
-0.259796
  0
LINE
  8
0
 10
-0.849991
 20
-1.47223
 11
-1
 21
-1.21243
  0
LINE
  8
0
 10
-1
 20
-1.21243
 11
-0.849991
 21
-0.952621
  0
LINE
  8
0
 10
-0.849991
 20
-0.952621
 11
-0.549988
 21
-0.952621
  0
LINE
  8
0
 10
-0.549988
 20
-0.952621
 11
-0.399994
 21
-1.21243
  0
LINE
  8
0
 10
-0.399994
 20
-1.21243
 11
-0.549988
 21
-1.47223
  0
LINE
  8
0
 10
-0.549988
 20
-1.47223
 11
-0.849991
 21
-1.47223
  0
LINE
  8
0
 10
0.549988
 20
-1.47223
 11
0.399994
 21
-1.21243
  0
LINE
  8
0
 10
0.399994
 20
-1.21243
 11
0.549988
 21
-0.952621
  0
LINE
  8
0
 10
0.549988
 20
-0.952621
 11
0.849991
 21
-0.952621
  0
LINE
  8
0
 10
0.849991
 20
-0.952621
 11
1
 21
-1.21243
  0
LINE
  8
0
 10
1
 20
-1.21243
 11
0.849991
 21
-1.47223
  0
LINE
  8
0
 10
0.849991
 20
-1.47223
 11
0.549988
 21
-1.47223
  0
ENDSEC
  0
SECTION
  2
OBJECTS
  0
DICTIONARY
  0
ENDSEC
  0
EOF
