<?xml version="1.0" standalone="no"?>
<!DOCTYPE svg PUBLIC "-//W3C//DTD SVG 1.1//EN" "http://www.w3.org/Graphics/SVG/1.1/DTD/svg11.dtd">
<svg width="140mm" height="34mm" viewBox="-70 -17 140 34" xmlns="http://www.w3.org/2000/svg" version="1.1">
<title>OpenSCAD Model</title>
<path d="
M 55.3384,-1.21875 L 55.6916,-2.53696 L 56.6407,-4.39966 L 57.9563,-6.02434 L 59.581,-7.33998 L 61.4437,-8.28908
 L 63.4631,-8.83015 L 65.5508,-8.93958 L 67.6156,-8.61253 L 69.5673,-7.86334 L 70,-7.58235 L 70,-12.4375
 L 20.0861,-15.4547 L 6.79434,-16.161 L -6.79434,-16.161 L -20.0861,-15.4547 L -70,-12.4375 L -70,-7.55345
 L -68.5563,-8.28908 L -66.5369,-8.83015 L -64.4492,-8.93958 L -62.3844,-8.61253 L -60.4327,-7.86334 L -58.6794,-6.72473
 L -57.2011,-5.24648 L -56.0625,-3.49318 L -55.3133,-1.54146 L -55.2622,-1.21875 L -54.1,-1.21875 L -54.1,1.21875
 L -55.2622,1.21875 L -55.3133,1.54146 L -56.0625,3.49318 L -57.2011,5.24648 L -58.6794,6.72473 L -60.4327,7.86334
 L -62.3844,8.61253 L -64.4492,8.93958 L -66.5369,8.83015 L -68.5563,8.28908 L -70,7.55345 L -70,12.4375
 L -20.0861,15.4547 L -6.79434,16.161 L 6.79434,16.161 L 20.0861,15.4547 L 70,12.4375 L 70,7.58235
 L 69.5673,7.86334 L 67.6156,8.61253 L 65.5508,8.93958 L 63.4631,8.83015 L 61.4437,8.28908 L 59.581,7.33998
 L 57.9563,6.02434 L 56.6407,4.39966 L 55.6916,2.53696 L 55.3384,1.21875 L 54.1,1.21875 L 54.1,-1.21875
 z
M -51.0677,-2.03368 L -50.5451,-2.93892 L -49.8456,-3.71571 L -49,-4.33012 L -48.0451,-4.75528 L -30.0377,-10.2647
 L -22.4453,-11.962 L -13.872,-13.1365 L -4.69234,-13.7368 L 4.69234,-13.7368 L 13.872,-13.1365 L 22.4453,-11.962
 L 30.0377,-10.2647 L 48.0451,-4.75528 L 49,-4.33012 L 49.8456,-3.71571 L 50.5451,-2.93892 L 51.0677,-2.03368
 L 51.3325,-1.21875 L 53.5,-1.21875 L 53.5,1.21875 L 51.3325,1.21875 L 51.0677,2.03368 L 50.5451,2.93892
 L 49.8456,3.71571 L 49,4.33012 L 48.0451,4.75528 L 30.0377,10.2647 L 22.4453,11.962 L 13.872,13.1365
 L 4.69234,13.7368 L -4.69234,13.7368 L -13.872,13.1365 L -22.4453,11.962 L -30.0377,10.2647 L -48.0451,4.75528
 L -49,4.33012 L -49.8456,3.71571 L -50.5451,2.93892 L -51.0677,2.03368 L -51.3325,1.21875 L -53.5,1.21875
 L -53.5,-1.21875 L -51.3325,-1.21875 z
" stroke="black" fill="lightgray" stroke-width="0.5"/>
<path d="
M 3.12685,4.66931 L 3.21013,4.71175 L 3.25256,4.79503 L 3.49866,4.875 L 5.533,4.875 L 5.7323,4.93974
 L 5.88049,5.08794 L 6.88452,7.05844 L 7.01961,7.2166 L 7.06389,7.23099 L 7.09685,7.26395 L 7.29912,7.3125
 L 11.7357,7.3125 L 11.9818,7.23253 L 12.0242,7.14925 L 12.1075,7.10681 L 12.1875,6.86072 L 12.1875,6.54546
 L 12.0184,6.13722 L 11.6558,5.77458 L 11.584,5.67587 L 10.2552,3.06796 L 10.2175,2.9519 L 9.75967,0.0610046
 L 9.75967,-0.0610046 L 10.2175,-2.9519 L 10.2552,-3.06796 L 11.584,-5.67587 L 11.6558,-5.77458 L 12.0184,-6.13722
 L 12.1875,-6.54546 L 12.1875,-6.86072 L 12.1075,-7.10681 L 12.0242,-7.14925 L 11.9818,-7.23253 L 11.7357,-7.3125
 L 7.29912,-7.3125 L 7.09685,-7.26395 L 7.06389,-7.23099 L 7.01961,-7.2166 L 6.88452,-7.05844 L 5.88049,-5.08794
 L 5.7323,-4.93974 L 5.533,-4.875 L 3.49866,-4.875 L 3.25256,-4.79503 L 3.21013,-4.71175 L 3.12685,-4.66931
 L 3.04688,-4.42322 L 3.04688,-2.72881 L -0.988708,-2.71297 L -0.973434,-2.83904 L -0.809341,-3.01558 L -0.69957,-3.03711
 L -0.700684,-3.04131 L -0.145218,-3.18918 L -0.0271301,-3.28827 L 0.178009,-3.69934 L 0.18869,-3.9001 L 0.20871,-4.00438
 L 0.599869,-5.16032 L 0.647293,-5.25534 L 1.33592,-6.26302 L 1.40723,-6.34174 L 2.34206,-7.12616 L 2.43196,-7.18271
 L 3.5439,-7.68588 L 3.64572,-7.71609 L 4.85202,-7.90057 L 4.95821,-7.90219 L 5.15776,-7.87785 L 5.59822,-8.0085
 L 6.79633,-9.01384 L 6.93344,-9.23329 L 6.83154,-9.67471 L 5.68304,-11.0434 L 5.59276,-11.2669 L 5.62564,-11.3987
 L 5.61195,-11.4022 L 5.71361,-11.81 L 5.68817,-12.1737 L 5.55388,-12.5062 L 5.31947,-12.7855 L 5.01543,-12.9755
 L 4.66158,-13.0637 L 4.30397,-13.0387 L 4.19807,-12.9959 L 4.11778,-12.9774 L 3.95799,-12.9129 L -0.247345,-13.4506
 L -0.211624,-13.5125 L -0.131241,-13.8125 L -0.211624,-14.1125 L -0.431244,-14.3321 L -0.731247,-14.4125 L -1.03125,-14.3321
 L -1.25085,-14.1125 L -1.33124,-13.8125 L -1.25085,-13.5125 L -0.991043,-13.0625 L -0.881241,-12.9527 L -0.731247,-12.9125
 L 3.47838,-12.3833 L 3.48289,-12.3187 L 3.42459,-12.0848 L 3.23994,-11.9299 L 3.08221,-11.9016 L 2.72278,-11.9124
 L 2.56755,-11.8293 L 2.45882,-11.7381 L 2.26231,-11.4036 L 2.0863,-10.4869 L 2.05225,-10.3863 L 1.50731,-9.29439
 L 1.44739,-9.20671 L 0.628036,-8.30223 L 0.546646,-8.23395 L -0.486359,-7.58409 L -0.583099,-7.54033 L -1.75307,-7.19327
 L -1.85806,-7.1772 L -2.7914,-7.16306 L -3.15491,-7.0276 L -4.35883,-6.0174 L -4.49594,-5.79794 L -4.39404,-5.35652
 L -3.24554,-3.98779 L -3.15526,-3.76431 L -3.18814,-3.63249 L -3.17445,-3.62907 L -3.27611,-3.22128 L -3.25067,-2.8575
 L -3.11638,-2.52507 L -2.88197,-2.24573 L -2.57793,-2.05574 L -2.22408,-1.96751 L -1.86647,-1.99251 L -1.76057,-2.03529
 L -1.68028,-2.05382 L -1.51093,-2.12224 L -1.48225,-2.11974 L 3.04688,-2.13348 L 3.04688,-1.97437 L 2.91524,-1.716
 L 2.65688,-1.58437 L -5.33812,-1.58437 L -5.59648,-1.716 L -5.72812,-1.97437 L -5.72812,-6.37321 L -5.80809,-6.61931
 L -5.89137,-6.66174 L -5.93381,-6.74503 L -6.1799,-6.825 L -8.4451,-6.825 L -8.77863,-6.71663 L -9.01965,-6.71663
 L -9.24663,-6.91048 L -9.32202,-7.05844 L -9.45711,-7.2166 L -9.50139,-7.23099 L -9.53435,-7.26395 L -9.73662,-7.3125
 L -14.1732,-7.3125 L -14.4193,-7.23253 L -14.4617,-7.14925 L -14.545,-7.10681 L -14.625,-6.86072 L -14.625,-6.54546
 L -14.4559,-6.13722 L -14.0933,-5.77458 L -14.0215,-5.67587 L -12.6927,-3.06796 L -12.655,-2.9519 L -12.1972,-0.0610046
 L -12.1972,0.0610046 L -12.655,2.9519 L -12.6927,3.06796 L -14.0215,5.67587 L -14.0933,5.77458 L -14.4559,6.13722
 L -14.625,6.54546 L -14.625,6.86072 L -14.545,7.10681 L -14.4617,7.14925 L -14.4193,7.23253 L -14.1732,7.3125
 L -9.73662,7.3125 L -9.53435,7.26395 L -9.50139,7.23099 L -9.45711,7.2166 L -9.32202,7.05844 L -9.24663,6.91048
 L -9.01965,6.71663 L -8.77863,6.71663 L -8.4451,6.825 L -6.1799,6.825 L -5.93381,6.74503 L -5.89137,6.66174
 L -5.80809,6.61931 L -5.72812,6.37321 L -5.72812,1.97437 L -5.59648,1.716 L -5.33812,1.58437 L 2.65688,1.58437
 L 2.91524,1.716 L 3.04688,1.97437 L 3.04688,2.13348 L -1.48225,2.11974 L -1.51093,2.12224 L -1.68028,2.05382
 L -1.76057,2.03529 L -1.86647,1.99251 L -2.22408,1.96751 L -2.57793,2.05574 L -2.88197,2.24573 L -3.11638,2.52507
 L -3.25067,2.8575 L -3.27611,3.22128 L -3.17445,3.62907 L -3.18814,3.63249 L -3.15526,3.76431 L -3.24554,3.98779
 L -4.39404,5.35652 L -4.49594,5.79794 L -4.35883,6.0174 L -3.15491,7.0276 L -2.7914,7.16306 L -1.85806,7.1772
 L -1.75307,7.19327 L -0.583099,7.54033 L -0.486359,7.58409 L 0.546646,8.23395 L 0.628036,8.30223 L 1.44739,9.20671
 L 1.50731,9.29439 L 2.05225,10.3863 L 2.0863,10.4869 L 2.26231,11.4036 L 2.45882,11.7381 L 2.56755,11.8293
 L 2.72278,11.9124 L 3.08221,11.9016 L 3.23994,11.9299 L 3.42459,12.0848 L 3.48289,12.3187 L 3.47838,12.3833
 L -0.731247,12.9125 L -0.881241,12.9527 L -0.991043,13.0625 L -1.25085,13.5125 L -1.33124,13.8125 L -1.25085,14.1125
 L -1.03125,14.3321 L -0.731247,14.4125 L -0.431244,14.3321 L -0.211624,14.1125 L -0.131241,13.8125 L -0.211624,13.5125
 L -0.247345,13.4506 L 3.95799,12.9129 L 4.11778,12.9774 L 4.19807,12.9959 L 4.30397,13.0387 L 4.66158,13.0637
 L 5.01543,12.9755 L 5.31947,12.7855 L 5.55388,12.5062 L 5.68817,12.1737 L 5.71361,11.81 L 5.61195,11.4022
 L 5.62564,11.3987 L 5.59276,11.2669 L 5.68304,11.0434 L 6.83154,9.67471 L 6.93344,9.23329 L 6.79633,9.01384
 L 5.59822,8.0085 L 5.15776,7.87785 L 4.95821,7.90219 L 4.85202,7.90057 L 3.64572,7.71609 L 3.5439,7.68588
 L 2.43196,7.18271 L 2.34206,7.12616 L 1.40723,6.34174 L 1.33592,6.26302 L 0.647293,5.25534 L 0.599869,5.16032
 L 0.20871,4.00438 L 0.18869,3.9001 L 0.178009,3.69934 L -0.0271301,3.28827 L -0.145218,3.18918 L -0.700684,3.04131
 L -0.69957,3.03711 L -0.809341,3.01558 L -0.973434,2.83904 L -0.988708,2.71297 L 3.04688,2.72881 L 3.04688,4.42322
 z
" stroke="black" fill="lightgray" stroke-width="0.5"/>
</svg>
