ply
format ascii 1.0
comment meshmixer generated
element vertex 152
property float x
property float y
property float z
property float nx
property float ny
property float nz
property uchar red
property uchar green
property uchar blue
property uchar alpha
element face 300
property list uchar int vertex_indices
end_header
33.7589 -19.9035 39.7225 -0.701789 0.550067 0.452679 255 255 255 255
38.6102 -8.27433 40.3074 -0.994337 -0.106154 -0.00501141 255 255 255 255
40.7143 -13.2345 32.2022 -0.951949 0.306082 -0.0103117 255 255 255 255
5.8723 -7.87676 49.8751 -0.0870833 -0.0266491 -0.995845 255 255 255 255
-11.2162 -12.9169 53.713 0.100651 0.315122 -0.943699 255 255 255 255
-11.8543 -3.42891 53.3965 0.0299719 -0.287585 -0.957286 255 255 255 255
6.00347 -18.3602 45.56 -0.140097 0.597173 -0.789783 255 255 255 255
37.1837 -14.2734 23.5252 -0.842698 0.194508 0.502023 255 255 255 255
38.7632 -0.494941 28.8272 -0.941571 -0.331387 0.0602267 255 255 255 255
35.1723 0.283209 21.1683 -0.715206 -0.338984 0.611204 255 255 255 255
37.488 -24.0307 59.9537 -0.727264 0.493268 -0.477256 255 255 255 255
34.2829 -30.7057 49.956 -0.236311 0.952274 -0.193212 255 255 255 255
26.8061 -22.5462 63.1546 0.201671 0.776843 -0.596527 255 255 255 255
-31.6835 6.7928 28.142 0.78621 -0.606422 -0.118856 255 255 255 255
-33.0342 -4.00267 37.5778 0.933996 -0.107873 -0.340609 255 255 255 255
-35.8781 -4.48921 20.8305 0.929733 -0.260233 -0.260529 255 255 255 255
32.0489 -23.6616 28.5153 -0.515473 0.848329 0.12094 255 255 255 255
25.8532 -21.4969 41.8427 0.140295 0.989496 0.0348554 255 255 255 255
22.3333 -24.9465 35.7319 -0.0491681 0.929569 -0.365354 255 255 255 255
29.6448 -27.8885 41.6954 0.0960683 0.673001 0.733376 255 255 255 255
27.7153 -29.8993 47.9812 0.518673 0.843214 -0.141308 255 255 255 255
-6.94085 -31.6291 33.4523 -0.0564368 0.875639 -0.479657 255 255 255 255
-7.52747 -33.289 20.6438 0.0424542 0.996703 0.0691402 255 255 255 255
-15.6236 -31.7117 28.7042 0.272475 0.916129 -0.294051 255 255 255 255
-17.0201 -29.914 12.815 0.412303 0.875507 0.251979 255 255 255 255
-1.84734 -31.1485 15.8094 -0.362956 0.892097 0.269122 255 255 255 255
-9.31397 -30.7342 8.79504 0.0317875 0.905332 0.423514 255 255 255 255
-17.3007 -25.4963 4.88697 0.326365 0.912604 0.246253 255 255 255 255
-0.0750408 -27.9819 7.41296 -0.168404 0.985671 0.00961557 255 255 255 255
-27.7844 5.13669 40.1921 0.632996 -0.581297 -0.511283 255 255 255 255
17.013 -18.5162 45.1255 0.402647 0.777341 -0.483339 255 255 255 255
-13.4671 -26.0621 36.8719 0.138341 0.835834 -0.531265 255 255 255 255
-9.41355 -23.3649 45.3062 -0.0351165 0.800183 -0.598727 255 255 255 255
1.03133 -25.5778 35.2291 -0.266455 0.8451 -0.463474 255 255 255 255
-17.9852 -30.9596 21.9084 0.440542 0.896111 0.0539198 255 255 255 255
12.8036 -24.8696 30.423 0.0135721 0.999887 -0.00644823 255 255 255 255
21.9842 -26.7804 28.332 -0.0465301 0.986752 0.155419 255 255 255 255
-34.2622 -14.5613 18.2573 0.740365 0.637894 -0.212016 255 255 255 255
-34.2221 -19.6678 8.33611 0.352944 0.913316 0.203186 255 255 255 255
-40.3223 -13.6961 19.9056 0.578926 0.554352 -0.597946 255 255 255 255
-11.2869 11.6257 35.5398 0.0765305 -0.816213 -0.572661 255 255 255 255
-22.5441 9.68501 37.4364 0.339875 -0.856256 -0.388987 255 255 255 255
-18.8081 14.5587 30.8965 0.429499 -0.86917 -0.2451 255 255 255 255
3.60969 10.8843 77.7133 -0.484118 -0.872322 0.0684323 255 255 255 255
-4.73184 14.5123 75.5292 0.0349521 -0.870284 0.491308 255 255 255 255
4.2561 5.71093 67.5887 0.0649425 -0.639754 0.765831 255 255 255 255
19.0712 -22.132 16.8859 -0.298455 0.805006 0.512728 255 255 255 255
12.0103 -22.6216 38.9024 -0.0200034 0.889874 -0.455768 255 255 255 255
14.5367 -22.8559 9.7402 -0.277255 0.953368 -0.119246 255 255 255 255
12.744 -25.017 0.00399379 -0.17839 0.868099 -0.46323 255 255 255 255
23.1273 -25.2579 5.93512 -0.702042 0.673866 -0.230308 255 255 255 255
7.87214 -24.2464 26.4807 -0.340292 0.937325 0.074992 255 255 255 255
5.50653 -20.647 10.35 -0.533503 0.84487 -0.0396164 255 255 255 255
4.10227 -24.273 38.3348 -0.177555 0.876804 -0.446867 255 255 255 255
-30.0543 -18.8812 10.1572 0.59299 0.76963 0.23671 255 255 255 255
3.43289 -32.2582 25.8395 -0.580618 0.813672 -0.0286479 255 255 255 255
24.7754 -24.8646 49.9135 0.764574 0.643729 -0.0322347 255 255 255 255
-33.52 -16.3712 31.8625 0.865081 0.441228 -0.238647 255 255 255 255
-27.5225 -24.167 22.9926 0.690305 0.720975 0.0606203 255 255 255 255
-43.5186 -3.56122 17.5258 0.85908 -0.449445 -0.244909 255 255 255 255
-42.3265 -13.0213 9.86787 0.904797 0.32115 0.279652 255 255 255 255
-38.664 -3.6408 5.24295 0.637089 -0.274345 0.720314 255 255 255 255
22.0289 -18.9699 64.5804 0.632849 0.482249 -0.605754 255 255 255 255
8.79959 0.1597 77.6735 -0.0870009 0.732275 -0.675429 255 255 255 255
8.55556 1.90984 71.3134 0.594164 0.746027 -0.300686 255 255 255 255
1.46844 7.75496 83.7243 0.079503 0.24981 -0.965026 255 255 255 255
-27.4798 -14.4538 45.4791 0.678341 0.230157 -0.697769 255 255 255 255
-22.0032 -20.2706 44.6592 0.414722 0.730696 -0.5423 255 255 255 255
19.4514 -7.86495 65.7189 0.288873 0.37173 -0.882252 255 255 255 255
14.0375 -4.36898 66.8788 0.531788 0.846811 -0.0106338 255 255 255 255
-2.26414 14.1565 83.0127 0.636174 0.612165 -0.469614 255 255 255 255
-3.1494 6.43126 70.3061 0.703859 0.666265 -0.24632 255 255 255 255
19.2486 -14.0878 58.4952 0.88015 0.397458 -0.259543 255 255 255 255
1.61735 0.999919 68.62 0.623528 0.720636 0.303143 255 255 255 255
-19.545 -24.6865 0.000393343 0.460527 0.588006 0.664954 255 255 255 255
-22.2764 -27.4677 30.5195 0.523819 0.790732 -0.316792 255 255 255 255
24.7071 33.9722 73.7816 -0.293052 -0.923013 0.249334 255 255 255 255
27.2078 25.9174 64.7802 0.86328 -0.175741 0.473142 255 255 255 255
29.9149 24.9633 63.8503 -0.869097 -0.442357 0.221339 255 255 255 255
20.14 -0.313246 60.1294 -0.0756993 -0.984956 0.155343 255 255 255 255
32.1341 18.4003 75.8514 -0.0817103 0.412778 -0.907159 255 255 255 255
24.8266 14.173 70.8401 0.893101 0.140506 -0.427351 255 255 255 255
24.936 25.7381 73.4675 0.921959 0.168124 -0.348893 255 255 255 255
14.1725 -7.60803 51.8961 0.552229 0.142758 -0.821379 255 255 255 255
23.6041 -0.136404 12.7203 -0.699495 -0.330412 0.633668 255 255 255 255
29.018 -9.17544 13.7603 -0.570255 0.0492005 0.819993 255 255 255 255
28.1013 31.8723 81.2857 0.0698216 -0.309145 -0.948448 255 255 255 255
-26.7967 -1.75851 46.0246 0.532892 -0.219997 -0.817084 255 255 255 255
17.899 -3.85077 59.3662 0.9502 0.0928929 0.297475 255 255 255 255
5.50396 -30.9468 4.7031 -0.408636 0.832632 -0.373819 255 255 255 255
-2.30668 -29.1278 0.000962379 -0.00348786 0.221123 0.97524 255 255 255 255
-36.3966 -12.753 4.07435 0.401187 0.150059 0.903621 255 255 255 255
19.7191 11.6656 31.3151 -0.123942 -0.990046 -0.0666927 255 255 255 255
3.3697 12.8003 34.1185 -0.100206 -0.865123 -0.491447 255 255 255 255
10.591 11.5714 25.8063 -0.601597 -0.770545 0.210577 255 255 255 255
19.9697 -11.5747 4.6348 -0.703398 0.175176 -0.688872 255 255 255 255
26.738 -16.3522 2.47559 -0.698576 -0.225734 -0.678997 255 255 255 255
-36.2116 2.9552 9.12053 0.419174 -0.852717 0.311715 255 255 255 255
-21.5564 0.828267 0.000225219 0.111785 -0.101727 0.988512 255 255 255 255
25.6522 10.8689 61.5388 0.865391 -0.126307 0.484917 255 255 255 255
40.9715 -7.12442 55.5763 -0.973768 -0.142608 -0.177312 255 255 255 255
42.2567 -24.4947 45.0023 -0.910293 0.383088 0.15688 255 255 255 255
4.81739 15.9778 12.607 -0.823113 -0.488345 0.289835 255 255 255 255
8.22217 4.4317 8.94527 -0.592399 -0.804358 -0.0455014 255 255 255 255
43.2709 -10.6015 45.3248 -0.90615 -0.168507 0.387941 255 255 255 255
37.5376 1.55033 48.5242 -0.723061 -0.690281 -0.0263557 255 255 255 255
33.7632 2.1143 42.2097 -0.571154 -0.814428 -0.102417 255 255 255 255
41.7838 -10.0855 63.6457 -0.775985 -0.0564922 -0.628216 255 255 255 255
33.5262 0.87642 63.6144 -0.839174 -0.44349 -0.314808 255 255 255 255
25.0532 -1.17589 64.4955 0.272319 -0.0812228 -0.958773 255 255 255 255
-31.8017 2.51903 12.8657 0.618268 -0.782487 0.0738806 255 255 255 255
-23.1474 11.7878 7.50765 0.650685 -0.62944 0.424751 255 255 255 255
-26.8977 10.0222 17.3967 0.728158 -0.682029 0.0679872 255 255 255 255
-23.3412 -15.2412 0.0020151 0.200311 0.16231 0.966194 255 255 255 255
33.0241 -14.3804 66.7872 -0.0986771 0.169375 -0.980599 255 255 255 255
29.8873 -1.22774 66.7716 -0.059338 0.18218 -0.981473 255 255 255 255
14.1271 5.28853 48.872 0.0399596 -0.697725 -0.71525 255 255 255 255
19.1579 -10.9175 11.1526 -0.633847 0.373621 0.677233 255 255 255 255
15.1605 2.81619 74.6597 -0.661258 -0.630633 -0.40625 255 255 255 255
34.488 25.8808 77.1829 -0.956998 -0.262687 0.123085 255 255 255 255
6.55547 10.9625 39.8346 -0.0575511 -0.895682 -0.440955 255 255 255 255
33.0829 5.81138 64.3991 -0.94551 -0.13462 0.296459 255 255 255 255
23.6014 9.39322 38.341 -0.302291 -0.900463 -0.312709 255 255 255 255
24.9704 9.34834 20.8549 -0.349269 -0.847078 0.400587 255 255 255 255
32.1607 7.77399 28.5199 -0.584709 -0.811237 0.00314269 255 255 255 255
24.14 -3.62107 6.88443 -0.789632 0.0100129 -0.613499 255 255 255 255
31.2234 -4.66271 0.00116413 -0.926708 0.134156 0.351018 255 255 255 255
-21.8031 14.1839 16.0959 0.455066 -0.887563 0.0717403 255 255 255 255
28.74 4.0544 57.8484 -0.0531456 -0.972298 0.227622 255 255 255 255
19.9613 2.67941 50.3948 0.146909 -0.906048 -0.396855 255 255 255 255
18.8211 6.19397 16.3793 -0.159066 -0.910187 0.382436 255 255 255 255
30.1978 23.5613 71.8119 -0.860559 -0.417847 0.291276 255 255 255 255
30.747 16.2847 62.1483 -0.726668 -0.240762 0.643419 255 255 255 255
-4.57311 19.9913 30.687 0.127021 -0.894929 -0.427747 255 255 255 255
5.00269 18.1931 30.6132 -0.533007 -0.637375 -0.556468 255 255 255 255
5.78444 20.6838 22.7758 -0.284842 -0.956255 0.0666395 255 255 255 255
3.70752 15.0894 6.49075 -0.190501 -0.966161 0.173902 255 255 255 255
11.1322 14.854 4.68072 -0.444529 -0.704508 -0.553229 255 255 255 255
15.7044 12.5982 0.0240834 -0.292892 -0.635863 0.714068 255 255 255 255
17.4397 6.69263 0.000364891 -0.218282 -0.224242 0.949773 255 255 255 255
27.556 1.75417 2.5385 -0.637117 -0.669183 -0.38246 255 255 255 255
18.4588 3.9077 6.26956 -0.543731 -0.777636 -0.315655 255 255 255 255
-5.09246 5.27056 48.0875 -0.0601099 -0.728618 -0.682278 255 255 255 255
5.58944 5.77243 46.0587 -0.0646194 -0.433907 -0.898637 255 255 255 255
-13.3602 8.14369 46.33 0.17733 -0.75697 -0.628928 255 255 255 255
0.603792 14.4474 0.000176074 0.0302592 -0.189759 0.981364 255 255 255 255
-13.6855 17.8616 19.4886 0.256769 -0.964523 0.061364 255 255 255 255
-12.4047 15.2378 6.78776 0.192598 -0.914299 0.356319 255 255 255 255
-18.3876 11.8482 3.11585 0.258092 -0.690017 0.676214 255 255 255 255
-0.99646 19.3895 13.4896 0.0124124 -0.960972 0.276367 255 255 255 255
26.1519 -16.7648 -0.000235184 -0.0584143 0.0660811 0.996103 255 255 255 255
30.467 -18.6686 18.4596 -0.449407 0.543309 0.709118 255 255 255 255
3 0 1 2 
3 3 4 5 
3 3 6 4 
3 7 8 9 
3 10 11 12 
3 13 14 15 
3 0 16 17 
3 17 16 18 
3 11 19 20 
3 21 22 23 
3 24 25 26 
3 26 27 24 
3 27 26 28 
3 13 29 14 
3 30 17 18 
3 31 32 33 
3 24 22 25 
3 34 22 24 
3 22 34 23 
3 35 18 36 
3 37 38 39 
3 40 41 42 
3 43 44 45 
3 36 46 35 
3 23 31 21 
3 47 30 18 
3 48 35 46 
3 18 35 47 
3 49 48 50 
3 35 48 51 
3 49 52 48 
3 30 47 6 
3 47 35 53 
3 48 52 51 
3 47 53 6 
3 33 35 51 
3 33 53 35 
3 37 54 38 
3 55 25 22 
3 55 22 21 
3 53 33 32 
3 6 53 32 
3 28 26 25 
3 20 19 56 
3 56 19 17 
3 56 12 20 
3 57 58 37 
3 59 60 61 
3 62 12 56 
3 63 64 65 
3 66 67 57 
3 56 17 30 
3 68 69 63 
3 70 64 71 
3 62 56 72 
3 64 73 71 
3 54 27 74 
3 31 75 67 
3 76 77 78 
3 72 56 30 
3 75 31 23 
3 20 12 11 
3 57 75 58 
3 57 67 75 
3 43 45 79 
3 80 81 82 
3 30 83 72 
3 45 71 73 
3 9 84 85 
3 63 69 64 
3 76 86 82 
3 87 14 29 
3 23 34 75 
3 68 88 69 
3 37 58 54 
3 64 69 73 
3 28 89 90 
3 60 38 91 
3 69 88 73 
3 58 24 54 
3 65 64 70 
3 92 93 94 
3 67 32 31 
3 58 75 34 
3 34 24 58 
3 39 38 60 
3 27 28 90 
3 54 24 27 
3 95 96 50 
3 97 61 98 
3 81 99 77 
3 10 100 101 
3 102 103 94 
3 48 95 50 
3 104 105 106 
3 107 108 100 
3 81 109 99 
3 110 98 111 
3 112 110 111 
3 70 71 44 
3 1 8 2 
3 1 104 106 
3 41 29 13 
3 81 77 82 
3 54 74 113 
3 112 15 110 
3 13 15 112 
3 44 71 45 
3 68 62 72 
3 59 61 97 
3 88 68 72 
3 66 57 14 
3 39 60 59 
3 77 76 82 
3 14 57 15 
3 61 60 91 
3 114 62 68 
3 39 59 15 
3 83 30 6 
3 114 115 107 
3 37 39 15 
3 88 72 83 
3 37 15 57 
3 3 116 83 
3 109 81 115 
3 107 115 108 
3 68 109 114 
3 10 12 114 
3 87 66 14 
3 48 46 117 
3 118 63 65 
3 80 82 86 
3 114 12 62 
3 115 81 80 
3 106 8 1 
3 119 80 86 
3 33 21 31 
3 67 66 4 
3 32 4 6 
3 4 66 87 
3 100 105 104 
3 114 109 115 
3 83 6 3 
3 32 67 4 
3 4 87 5 
3 120 93 92 
3 28 25 52 
3 55 21 33 
3 70 44 43 
3 33 51 55 
3 80 121 108 
3 49 89 52 
3 107 10 114 
3 18 16 36 
3 10 101 11 
3 89 28 52 
3 88 79 45 
3 122 123 124 
3 125 126 95 
3 25 55 52 
3 127 42 112 
3 128 129 106 
3 16 2 7 
3 63 109 68 
3 55 51 52 
3 130 94 103 
3 108 115 80 
3 118 43 79 
3 95 84 125 
3 95 117 84 
3 16 0 2 
3 76 131 86 
3 131 119 86 
3 76 78 131 
3 121 119 131 
3 131 78 132 
3 40 133 93 
3 94 134 135 
3 93 134 94 
3 131 132 121 
3 101 100 104 
3 80 119 121 
3 94 135 102 
3 103 102 136 
3 137 138 139 
3 136 137 103 
3 10 107 100 
3 128 121 132 
3 125 140 126 
3 43 118 65 
3 2 8 7 
3 106 124 8 
3 9 8 124 
3 141 137 139 
3 108 121 128 
3 105 108 128 
3 84 141 125 
3 84 130 141 
3 108 105 100 
3 118 109 63 
3 99 128 132 
3 65 70 43 
3 142 143 5 
3 140 125 141 
3 42 133 40 
3 29 144 87 
3 137 141 103 
3 93 120 142 
3 97 110 59 
3 106 129 122 
3 45 73 88 
3 122 129 116 
3 134 133 135 
3 144 5 87 
3 133 134 93 
3 143 116 3 
3 129 88 83 
3 13 42 41 
3 120 143 142 
3 59 110 15 
3 116 129 83 
3 143 3 5 
3 144 142 5 
3 29 41 144 
3 140 141 139 
3 120 116 143 
3 124 123 9 
3 137 136 145 
3 110 97 98 
3 79 128 109 
3 128 79 129 
3 42 13 112 
3 123 92 130 
3 129 79 88 
3 127 112 111 
3 146 42 127 
3 92 116 120 
3 123 84 9 
3 92 94 130 
3 130 84 123 
3 147 111 148 
3 127 111 147 
3 147 146 127 
3 109 118 79 
3 92 123 122 
3 41 40 144 
3 42 146 133 
3 144 93 142 
3 130 103 141 
3 149 146 147 
3 93 144 40 
3 135 146 149 
3 135 133 146 
3 128 106 105 
3 147 148 136 
3 149 147 136 
3 148 145 136 
3 106 122 124 
3 135 149 102 
3 122 116 92 
3 149 136 102 
3 78 77 132 
3 132 77 99 
3 0 104 1 
3 101 104 0 
3 19 101 0 
3 46 36 16 
3 113 91 38 
3 96 150 50 
3 90 150 98 
3 85 7 9 
3 151 7 85 
3 16 7 151 
3 54 113 38 
3 99 109 128 
3 0 17 19 
3 48 117 95 
3 117 85 84 
3 151 85 117 
3 46 16 151 
3 151 117 46 
3 91 98 61 
3 101 19 11 
3 140 139 126 
3 98 113 90 
3 98 145 148 
3 95 150 96 
3 27 90 74 
3 95 126 150 
3 150 90 50 
3 90 89 49 
3 137 145 138 
3 98 148 111 
3 150 139 145 
3 139 150 126 
3 145 139 138 
3 50 90 49 
3 113 74 90 
3 113 98 91 
3 150 145 98 
